<svg width="22" height="22" viewBox="0 0 22 22" fill="none" xmlns="http://www.w3.org/2000/svg">
<path opacity="0.9" d="M7.94434 2.44444H4.27767C3.26515 2.44444 2.44434 3.26526 2.44434 4.27778V7.94444C2.44434 8.95697 3.26515 9.77778 4.27767 9.77778H7.94434C8.95686 9.77778 9.77767 8.95697 9.77767 7.94444V4.27778C9.77767 3.26526 8.95686 2.44444 7.94434 2.44444Z" fill="white"/>
<path opacity="0.6" d="M17.7222 2.44444H14.0555C13.043 2.44444 12.2222 3.26526 12.2222 4.27778V7.94444C12.2222 8.95697 13.043 9.77778 14.0555 9.77778H17.7222C18.7347 9.77778 19.5555 8.95697 19.5555 7.94444V4.27778C19.5555 3.26526 18.7347 2.44444 17.7222 2.44444Z" fill="white"/>
<path opacity="0.6" d="M7.94434 12.2222H4.27767C3.26515 12.2222 2.44434 13.043 2.44434 14.0556V17.7222C2.44434 18.7347 3.26515 19.5556 4.27767 19.5556H7.94434C8.95686 19.5556 9.77767 18.7347 9.77767 17.7222V14.0556C9.77767 13.043 8.95686 12.2222 7.94434 12.2222Z" fill="white"/>
<path opacity="0.3" d="M17.7222 12.2222H14.0555C13.043 12.2222 12.2222 13.043 12.2222 14.0556V17.7222C12.2222 18.7347 13.043 19.5556 14.0555 19.5556H17.7222C18.7347 19.5556 19.5555 18.7347 19.5555 17.7222V14.0556C19.5555 13.043 18.7347 12.2222 17.7222 12.2222Z" fill="white"/>
</svg>
